<svg xmlns="http://www.w3.org/2000/svg" width="15.914" height="14" viewBox="0 0 15.914 14">
  <path id="Path_7" data-name="Path 7" d="M397.954,707.051A6.888,6.888,0,0,0,393.031,705a1,1,0,0,0,0,2,4.928,4.928,0,0,1,3.517,1.464,5.018,5.018,0,0,1,0,7.071,4.945,4.945,0,0,1-8.445-3.076l.247.248a.99.99,0,0,0,1.406,0,1,1,0,0,0,0-1.414l-1.989-2a.99.99,0,0,0-1.407,0l-1.989,2a1,1,0,0,0,0,1.414.99.99,0,0,0,1.407,0l.31-.312a6.959,6.959,0,1,0,11.866-5.344" transform="translate(-384.08 -705)" fill="#e3e1e0" fill-rule="evenodd"/>
</svg>
