<svg xmlns="http://www.w3.org/2000/svg" width="106.874" height="164.842" viewBox="0 0 106.874 164.842">
  <g id="Group_13" data-name="Group 13" transform="translate(0.107 0.209)">
    <path id="Path_58" data-name="Path 58" d="M1010.5,508.84s23.558,23.558,10.259,58.512,22.792,93.077,22.792,93.077-.388-.056-1.126-.18C994.039,651.707,970,596.377,996.9,555.269,1006.933,539.988,1015.142,522.06,1010.5,508.84Z" transform="translate(-968.538 -508.446)" opacity="0.1"/>
    <path id="Path_59" data-name="Path 59" d="M991.14,508.14s13.3,28.873,0,52.431-2.252,89.665,33.057,99.164" transform="translate(-949.182 -508.14)" fill="none" stroke="#535461" stroke-miterlimit="10" stroke-width="1"/>
    <path id="Path_60" data-name="Path 60" d="M975,677.132s26.88-4.279,29.329,19.808,51.7,27.426,51.7,27.426l-.923.614c-40.652,26.688-79.519,17-73.658-18.44C983.615,693.37,983.435,680.138,975,677.132Z" transform="translate(-975 -581.853)" fill="#94d3ac"/>
    <path id="Path_61" data-name="Path 61" d="M975.04,677.36s20.866,4.578,19.144,23.552,30.967,41.716,61.867,23.687" transform="translate(-975.04 -582.081)" fill="none" stroke="#535461" stroke-miterlimit="10" stroke-width="1"/>
    <path id="Path_62" data-name="Path 62" d="M929.3,746.678s21.171-4.234,26.818-9.881,31.052-15.523,33.873-8.446,38.107,31.052,14.116,35.286-56.457,5.63-63.512,2.815S929.3,746.678,929.3,746.678Z" transform="translate(-905.648 -603.286)" fill="#a8a8a8"/>
  </g>
</svg>
